<?xml version="1.0" encoding="UTF-8"?>
<svg id="Calque_1" data-name="Calque 1" xmlns="http://www.w3.org/2000/svg" viewBox="0 0 1200 800">
  <defs>
    <style>
      .cls-1 {
        fill: #fbb;
      }

      .cls-2 {
        fill: #625aff;
      }
    </style>
  </defs>
  <g>
    <path class="cls-2" d="M306.29,434.63v-58.41h23.03v57.36c0,14.65,7.54,23.03,20.73,23.03s20.73-8.16,20.73-23.03v-57.36h23.03v58.41c0,26.38-17.79,44.17-43.75,44.17s-43.75-18.21-43.75-44.17Z"/>
    <path class="cls-2" d="M432.32,397.16h-24.08v-20.94h24.08v-41.87h23.03v41.87h24.08v20.94h-24.08v79.55h-23.03v-79.55Z"/>
    <path class="cls-2" d="M486.75,426.26c0-29.1,23.03-52.13,52.55-52.13s52.76,22.82,52.76,52.13-23.03,52.55-52.76,52.55-52.55-23.24-52.55-52.55ZM568.4,426.26c0-17.59-12.14-29.94-29.1-29.94s-28.89,12.56-28.89,29.94,11.93,30.36,28.89,30.36,29.1-12.56,29.1-30.36Z"/>
    <path class="cls-1" d="M602.31,460.38l14.65-14.65c6.91,8.16,15.91,12.14,27.43,12.14,10.26,0,15.7-3.14,15.7-9,0-18.21-52.13-7.33-52.13-43.75,0-19.26,14.03-30.98,37.06-30.98,16.12,0,28.68,5.86,37.05,17.17l-14.65,14.65c-5.86-7.33-13.19-10.89-23.03-10.89-9.21,0-14.45,2.93-14.45,8.17,0,16.54,52.13,6.7,52.13,43.75,0,19.68-14.65,31.82-38.1,31.82-16.96,0-32.03-6.7-41.66-18.42Z"/>
    <path class="cls-2" d="M716.4,397.16h-24.08v-20.94h24.08v-41.87h23.03v41.87h24.08v20.94h-24.08v79.55h-23.03v-79.55Z"/>
    <path class="cls-2" d="M780.25,376.23h23.03v10.47c5.65-7.96,14.45-12.56,26.17-12.56,10.05,0,18,3.56,24.91,11.51l-15.07,15.49c-3.77-3.77-7.96-5.44-13.82-5.44-12.98,0-22.19,7.96-22.19,25.12v55.9h-23.03v-100.49Z"/>
    <path class="cls-2" d="M863.58,343.99c0-7.75,5.65-13.82,13.61-13.82s13.61,6.07,13.61,13.82-5.65,13.82-13.61,13.82-13.61-6.07-13.61-13.82ZM865.67,376.23h23.03v100.49h-23.03v-100.49Z"/>
    <path class="cls-2" d="M914.45,325.98h23.03v97.56l40.61-47.31h27.42l-42.29,48.15,44.38,52.34h-29.31l-40.82-49.2v49.2h-23.03v-150.73Z"/>
    <path class="cls-2" d="M1009.91,426.47c0-29.52,22.82-52.34,51.92-52.34s47.94,21.14,47.94,50.03c0,3.35-.42,6.7-1.26,10.89h-74.95c3.35,13.82,14.24,22.19,29.31,22.19,10.26,0,19.47-3.56,25.54-10.68l14.65,14.86c-9.84,11.51-24.28,17.38-39.99,17.38-30.15,0-53.18-22.4-53.18-52.34ZM1033.57,416.21h53.59c-2.93-13.4-11.72-20.94-25.75-20.94s-24.49,7.96-27.84,20.94Z"/>
  </g>
  <g>
    <path class="cls-1" d="M206.35,408.31l1.66,1.8s.11.11.3,0,12.38-2.85.94-45.81l-2.93.38s9.35,36.7.02,43.62Z"/>
    <path class="cls-2" d="M256.32,389.27c-4.37-11.58-6.6-19.68-7.16-21.81-.05-.18-.1-.37-.14-.56,0,0,0,0,0,0h0c-3.73-14.41-7.81-35.73-9.47-63.87,0,0-46.41-.74-76.54-46.66,0,0-21.05,42.95-82.79,46.66,0,0-1.01,60.6,0,85.64,0,0-.33,5.1.58,12.42,0,.04.01.07.02.11,5.02,52.58,41.68,88.66,92.3,88.66.12,0,.23,0,.35,0,0,0,1.16.05,3.06-.16,9.21-.87,17.15-5.44,22.58-12.33,6.49-7.78,11.71-20.37,11.88-40.79-.05-6.51-1.48-12.53-4.3-18.06-2.81-5.53-6.31-10.54-10.48-15.03-4.17-4.49-8.7-8.5-13.58-12.04-4.88-3.54-9.39-6.65-13.53-9.34-4.14-2.68-7.58-4.94-10.32-6.76-3.7-2.46-4.89-4.17-3.59-5.14.28-.21.63-.31.98-.28,1.62.12,4.18,1.13,7.67,3.05,3.69,2.03,7.95,4.82,12.78,8.36,4.83,3.54,9.98,7.79,15.45,12.73,3.82,3.46,7.57,7.12,11.24,10.97,0,0,0,0,0,0,9.24-7.72-.76-35.74-2.3-39.85-1.75.14-3.57.26-5.5.36-5.26.26-10.55.42-15.85.48-5.31.06-10.37.07-15.17.04-4.81-.04-8.71-.07-11.72-.09-3.11-.02-6.06.63-8.88,1.96-2.82,1.33-5.26,3.29-7.33,5.88-2.07,2.59-3.72,5.81-4.95,9.65-1.23,3.85-1.86,8.27-1.9,13.28-.05,6.51,1.58,12.53,4.9,18.06,3.31,5.53,7.46,10.55,12.43,15.04,4.97,4.49,10.4,8.49,16.28,11.99,2.65,1.57,5.19,3.02,7.65,4.38-3.88-1.04-7.92-2.5-12.05-4.48-39.14-16.92-45.05-45.1-45.89-55.21-.05-.6-.09-1.2-.11-1.81-.05-1.25,0-1.94,0-1.94.27-8.45,2.53-21,12.49-29.24.61-.5,1.24-.98,1.91-1.43,4.62-2.96,7.98-3.99,7.98-3.99,0,0,3.07-1.35,8.31-2.63,3.94-.92,8.04-1.55,12.09-1.97,0,0,0,0,0,0,0,0,.01,0,.02,0,5.3-.55,10.5-.73,15.09-.71,13.06.36,31.43,3.41,41.79,16.34,2.18,2.9,3.97,6.1,5.34,9.5,6.85,18.56,4.95,110.42,4.95,110.42,5.77-1.47,23.45-8.23,39.02-6.63.28.03.55.07.83.1,15.4,2.25,33.3,23.55,33.3,23.55,0,0-20.68-56.5-39.71-106.81Z"/>
  </g>
</svg>