<?xml version="1.0" encoding="UTF-8"?>
<svg id="Calque_1" data-name="Calque 1" xmlns="http://www.w3.org/2000/svg" viewBox="0 0 1024 1024">
  <defs>
    <style>
      .cls-1 {
        fill: #fbb;
      }

      .cls-2 {
        fill: #625aff;
      }
    </style>
  </defs>
  <path class="cls-1" d="M606.28,626.6l5.93,6.44s.38.39,1.08,0,44.21-10.17,3.37-163.64l-10.46,1.37s33.4,131.09.08,155.83Z"/>
  <path class="cls-2" d="M784.78,558.6c-15.59-41.35-23.57-70.3-25.57-77.9-.17-.66-.34-1.33-.52-2,0,0,0,0,0,0h0c-13.31-51.46-27.91-127.63-33.83-228.15,0,0-165.79-2.63-273.4-166.68,0,0-75.19,153.42-295.74,166.68,0,0-3.59,216.45,0,305.91,0,0-1.19,18.23,2.07,44.38.02.13.04.25.06.38,17.93,187.81,148.87,316.7,329.68,316.7.41,0,.82,0,1.24,0,0,0,4.16.17,10.92-.59,32.89-3.1,61.28-19.44,80.67-44.06,23.19-27.77,41.83-72.75,42.44-145.7-.19-23.25-5.3-44.76-15.35-64.51-10.05-19.75-22.53-37.64-37.43-53.67-14.91-16.03-31.08-30.37-48.51-43.02-17.44-12.65-33.54-23.77-48.31-33.36-14.78-9.59-27.06-17.64-36.85-24.15-13.21-8.78-17.47-14.89-12.83-18.36,1-.74,2.24-1.09,3.48-1,5.79.41,14.92,4.05,27.38,10.9,13.18,7.26,28.4,17.21,45.66,29.85,17.25,12.66,35.65,27.82,55.2,45.49,13.66,12.35,27.03,25.45,40.16,39.19,0,0,0,0,0,0,33.01-27.59-2.72-127.65-8.2-142.34-6.26.49-12.74.94-19.66,1.28-18.79.93-37.67,1.51-56.63,1.72-18.97.22-37.02.26-54.2.13-17.17-.13-31.12-.23-41.85-.31-11.09-.08-21.66,2.25-31.71,7.01-10.06,4.76-18.79,11.76-26.18,21-7.41,9.25-13.3,20.75-17.7,34.48-4.39,13.74-6.66,29.55-6.79,47.44-.17,23.26,5.65,44.77,17.49,64.52,11.84,19.77,26.63,37.68,44.41,53.73,17.77,16.05,37.15,30.33,58.17,42.83,9.45,5.62,18.53,10.8,27.34,15.66-13.85-3.73-28.29-8.94-43.05-16.02-139.8-60.44-160.93-161.1-163.91-197.22-.19-2.15-.32-4.3-.39-6.46-.16-4.47,0-6.95,0-6.95.95-30.19,9.04-75,44.62-104.45,2.16-1.79,4.44-3.49,6.81-5.12,16.51-10.57,28.51-14.25,28.51-14.25,0,0,10.96-4.82,29.68-9.39,14.07-3.28,28.73-5.54,43.19-7.03,0,0,0,0,0,0,.02,0,.05,0,.07,0,18.94-1.96,37.51-2.61,53.92-2.54,46.66,1.3,112.27,12.18,149.28,58.35,7.77,10.36,14.19,21.78,19.08,33.94,24.46,66.3,17.7,394.42,17.7,394.42,20.59-5.25,83.77-29.39,139.37-23.69.98.11,1.97.24,2.95.37,55.01,8.05,118.94,84.11,118.94,84.11,0,0-73.86-201.83-141.85-381.53Z"/>
</svg>