<?xml version="1.0" encoding="UTF-8"?>
<svg id="Calque_1" data-name="Calque 1" xmlns="http://www.w3.org/2000/svg" viewBox="0 0 1024 1024">
  <defs>
    <style>
      .cls-1 {
        fill: #fbb;
      }

      .cls-2 {
        fill: #625aff;
      }
    </style>
  </defs>
  <g>
    <path class="cls-1" d="M571.26,514.63l4.37,4.75s.28.28.79,0,32.59-7.5,2.48-120.65l-7.71,1.01s24.62,96.65.06,114.89Z"/>
    <path class="cls-2" d="M702.86,464.5c-11.5-30.48-17.38-51.83-18.85-57.43-.13-.48-.25-.98-.38-1.47,0,0,0,0,0,0h0c-9.81-37.94-20.58-94.09-24.94-168.21,0,0-122.23-1.94-201.57-122.89,0,0-55.44,113.11-218.04,122.89,0,0-2.65,159.58,0,225.54,0,0-.88,13.44,1.52,32.72.01.09.03.19.04.28,13.22,138.47,109.76,233.49,243.06,233.49.3,0,.61,0,.91,0,0,0,3.06.12,8.05-.43,24.25-2.29,45.18-14.34,59.47-32.48,17.1-20.48,30.84-53.64,31.29-107.42-.14-17.14-3.91-33-11.32-47.56-7.41-14.56-16.61-27.75-27.6-39.57-10.99-11.82-22.91-22.39-35.76-31.72-12.86-9.33-24.73-17.52-35.62-24.6-10.9-7.07-19.95-13.01-27.17-17.81-9.74-6.48-12.88-10.98-9.46-13.53.73-.55,1.65-.8,2.57-.74,4.27.31,11,2.99,20.19,8.04,9.72,5.35,20.94,12.69,33.66,22.01,12.72,9.33,26.29,20.51,40.7,33.54,10.07,9.11,19.93,18.76,29.61,28.9,0,0,0,0,0,0,24.33-20.34-2-94.11-6.04-104.94-4.62.36-9.4.69-14.5.95-13.85.69-27.77,1.11-41.75,1.27-13.98.16-27.3.19-39.96.1-12.66-.09-22.94-.17-30.86-.23-8.18-.06-15.97,1.66-23.38,5.16-7.41,3.51-13.85,8.67-19.3,15.48-5.46,6.82-9.81,15.3-13.05,25.42-3.24,10.13-4.91,21.79-5.01,34.97-.13,17.15,4.17,33.01,12.9,47.57,8.73,14.57,19.64,27.78,32.74,39.61,13.1,11.84,27.39,22.36,42.88,31.58,6.97,4.14,13.66,7.96,20.16,11.55-10.21-2.75-20.86-6.59-31.74-11.81-103.07-44.56-118.65-118.77-120.84-145.4-.14-1.58-.24-3.17-.29-4.77-.12-3.29,0-5.12,0-5.12.7-22.26,6.67-55.3,32.9-77.01,1.59-1.32,3.28-2.57,5.02-3.78,12.17-7.79,21.02-10.51,21.02-10.51,0,0,8.08-3.55,21.88-6.92,10.37-2.42,21.18-4.08,31.84-5.18,0,0,0,0,0,0,.02,0,.03,0,.05,0,13.96-1.44,27.66-1.92,39.75-1.87,34.4.96,82.78,8.98,110.06,43.02,5.73,7.64,10.46,16.06,14.07,25.02,18.03,48.88,13.05,290.79,13.05,290.79,15.18-3.87,61.76-21.67,102.75-17.46.73.08,1.45.18,2.17.27,40.55,5.94,87.69,62.01,87.69,62.01,0,0-54.45-148.8-104.58-281.29Z"/>
  </g>
  <g>
    <path class="cls-2" d="M328.74,876.68v-36.09h14.23v35.44c0,9.05,4.66,14.23,12.81,14.23s12.81-5.04,12.81-14.23v-35.44h14.23v36.09c0,16.3-11,27.29-27.03,27.29s-27.03-11.25-27.03-27.29Z"/>
    <path class="cls-2" d="M406.61,853.53h-14.88v-12.93h14.88v-25.87h14.23v25.87h14.88v12.93h-14.88v49.15h-14.23v-49.15Z"/>
    <path class="cls-2" d="M440.23,871.51c0-17.98,14.23-32.21,32.47-32.21s32.6,14.1,32.6,32.21-14.23,32.47-32.6,32.47-32.47-14.36-32.47-32.47ZM490.68,871.51c0-10.87-7.5-18.5-17.98-18.5s-17.85,7.76-17.85,18.5,7.37,18.76,17.85,18.76,17.98-7.76,17.98-18.76Z"/>
    <path class="cls-1" d="M511.63,892.59l9.05-9.05c4.27,5.04,9.83,7.5,16.95,7.5,6.34,0,9.7-1.94,9.7-5.56,0-11.25-32.21-4.53-32.21-27.03,0-11.9,8.67-19.14,22.89-19.14,9.96,0,17.72,3.62,22.89,10.61l-9.05,9.05c-3.62-4.53-8.15-6.73-14.23-6.73-5.69,0-8.93,1.81-8.93,5.04,0,10.22,32.21,4.14,32.21,27.03,0,12.16-9.05,19.66-23.54,19.66-10.48,0-19.79-4.14-25.74-11.38Z"/>
    <path class="cls-2" d="M582.12,853.53h-14.88v-12.93h14.88v-25.87h14.23v25.87h14.88v12.93h-14.88v49.15h-14.23v-49.15Z"/>
    <path class="cls-2" d="M621.57,840.59h14.23v6.47c3.49-4.92,8.93-7.76,16.17-7.76,6.21,0,11.12,2.2,15.39,7.11l-9.31,9.57c-2.33-2.33-4.92-3.36-8.54-3.36-8.02,0-13.71,4.92-13.71,15.52v34.54h-14.23v-62.09Z"/>
    <path class="cls-2" d="M673.04,820.67c0-4.79,3.49-8.54,8.41-8.54s8.41,3.75,8.41,8.54-3.49,8.54-8.41,8.54-8.41-3.75-8.41-8.54ZM674.34,840.59h14.23v62.09h-14.23v-62.09Z"/>
    <path class="cls-2" d="M704.47,809.55h14.23v60.28l25.09-29.23h16.95l-26.13,29.75,27.42,32.34h-18.11l-25.22-30.4v30.4h-14.23v-93.13Z"/>
    <path class="cls-2" d="M763.45,871.64c0-18.24,14.1-32.34,32.08-32.34s29.62,13.06,29.62,30.91c0,2.07-.26,4.14-.78,6.73h-46.31c2.07,8.54,8.8,13.71,18.11,13.71,6.34,0,12.03-2.2,15.78-6.6l9.05,9.18c-6.08,7.11-15,10.74-24.71,10.74-18.63,0-32.85-13.84-32.85-32.34ZM778.07,865.3h33.11c-1.81-8.28-7.24-12.93-15.91-12.93s-15.13,4.92-17.2,12.93Z"/>
  </g>
  <g>
    <path class="cls-1" d="M267,860.42l1.03,1.11s.07.07.19,0,7.65-1.76.58-28.3l-1.81.24s5.78,22.67.01,26.95Z"/>
    <path class="cls-2" d="M297.87,848.66c-2.7-7.15-4.08-12.16-4.42-13.47-.03-.11-.06-.23-.09-.35,0,0,0,0,0,0h0c-2.3-8.9-4.83-22.07-5.85-39.46,0,0-28.67-.46-47.29-28.83,0,0-13.01,26.54-51.15,28.83,0,0-.62,37.44,0,52.91,0,0-.21,3.15.36,7.68,0,.02,0,.04.01.07,3.1,32.48,25.75,54.78,57.02,54.78.07,0,.14,0,.21,0,0,0,.72.03,1.89-.1,5.69-.54,10.6-3.36,13.95-7.62,4.01-4.8,7.24-12.58,7.34-25.2-.03-4.02-.92-7.74-2.65-11.16-1.74-3.42-3.9-6.51-6.47-9.28-2.58-2.77-5.38-5.25-8.39-7.44-3.02-2.19-5.8-4.11-8.36-5.77-2.56-1.66-4.68-3.05-6.37-4.18-2.28-1.52-3.02-2.58-2.22-3.17.17-.13.39-.19.6-.17,1,.07,2.58.7,4.74,1.89,2.28,1.26,4.91,2.98,7.9,5.16,2.98,2.19,6.17,4.81,9.55,7.87,2.36,2.14,4.68,4.4,6.95,6.78,0,0,0,0,0,0,5.71-4.77-.47-22.08-1.42-24.62-1.08.09-2.2.16-3.4.22-3.25.16-6.52.26-9.79.3-3.28.04-6.4.05-9.37.02-2.97-.02-5.38-.04-7.24-.05-1.92-.01-3.75.39-5.49,1.21-1.74.82-3.25,2.03-4.53,3.63-1.28,1.6-2.3,3.59-3.06,5.96-.76,2.38-1.15,5.11-1.18,8.2-.03,4.02.98,7.74,3.03,11.16,2.05,3.42,4.61,6.52,7.68,9.29,3.07,2.78,6.43,5.25,10.06,7.41,1.63.97,3.21,1.87,4.73,2.71-2.4-.65-4.89-1.55-7.45-2.77-24.18-10.45-27.83-27.86-28.35-34.11-.03-.37-.06-.74-.07-1.12-.03-.77,0-1.2,0-1.2.16-5.22,1.56-12.97,7.72-18.07.37-.31.77-.6,1.18-.89,2.86-1.83,4.93-2.47,4.93-2.47,0,0,1.9-.83,5.13-1.62,2.43-.57,4.97-.96,7.47-1.22,0,0,0,0,0,0,0,0,0,0,.01,0,3.28-.34,6.49-.45,9.33-.44,8.07.22,19.42,2.11,25.82,10.09,1.34,1.79,2.46,3.77,3.3,5.87,4.23,11.47,3.06,68.22,3.06,68.22,3.56-.91,14.49-5.08,24.11-4.1.17.02.34.04.51.06,9.51,1.39,20.57,14.55,20.57,14.55,0,0-12.77-34.91-24.54-65.99Z"/>
  </g>
</svg>